# xmcd
#
# Track frame offsets:
#	150
#	19505
#	37105
#	57960
#	75730
#	93940
#	114438
#	129890
#	148407
#	165593
#	181523
#	197651
#
# Disc length: 2968 seconds
#
# Revision: 2
# Processed by: cddbd v1.4PL0 Copyright (c) Steve Scherf et al.
# Submitted via: EasyCDDAExtractor 5.0.7
#
DISCID=940b960c
DTITLE=Craig David - Born To Do It
DYEAR=2000
DGENRE=R&B
TTITLE0=Fill Me In
TTITLE1=Can't Be Messing 'Round
TTITLE2=Rendezvous
TTITLE3=7 Days
TTITLE4=Follow Me
TTITLE5=Last Night
TTITLE6=Walking Away
TTITLE7=Time To Party
TTITLE8=Booty Man
TTITLE9=Once In A Lifetime
TTITLE10=You Know What
TTITLE11=Rewind
EXTD=\n2000 ID3 YEAR: 2000 ID3G: 14
EXTT0=
EXTT1=
EXTT2=
EXTT3=
EXTT4=
EXTT5=
EXTT6=
EXTT7=
EXTT8=
EXTT9=
EXTT10=
EXTT11=
PLAYORDER=
